<svg viewBox="97.4421 188.6684 1135.1778 408.4082" width="5000" height="1798.8732690156558" xmlns="http://www.w3.org/2000/svg" xmlns:xlink="http://www.w3.org/1999/xlink" preserveAspectRatio="none"><defs></defs><style>.a6izo4zJpcolor {fill:#FFFFFF;fill-opacity:1;}.a6izo4zJpstrokeColor-str {stroke:#D9D9D9;stroke-opacity:1;}.aa32ZHzqBXdcolors-0 {fill:#FFFFFF;fill-opacity:1;}.aD6z1nYkhcolor {fill:#FFFFFF;fill-opacity:1;}.aD6z1nYkhstrokeColor-str {stroke:#D9D9D9;stroke-opacity:1;}.aR9TavoXYfillColor {fill:#FFFFFF;fill-opacity:0.98;}.aR9TavoXYstrokeColor-str {stroke:#D9D9D9;stroke-opacity:1;}.asr1BtIxlfillColor {fill:#FFFFFF;fill-opacity:1;}.asr1BtIxlstrokeColor-str {stroke:#D9D9D9;stroke-opacity:1;}</style><g opacity="1" transform="rotate(0 559.3799 553.9547)">
<svg width="673.24" height="43.1219" x="559.3799" y="553.9547" version="1.1" preserveAspectRatio="none" viewBox="4.16 -30.12 491.47999999999996 31.48">
  <g transform="matrix(1 0 0 1 0 0)" class="a6izo4zJpcolor"><path id="id-6izo4zJp16" d="M17.04-15Q19.52-14.04 20.96-12.26Q22.40-10.48 22.40-8.12L22.40-8.12Q22.40-5.36 21.06-3.54Q19.72-1.72 17.54-0.86Q15.36 0 12.76 0L12.76 0L4.16 0L4.16-28.92L11.64-28.92Q16.08-28.92 18.52-27.10Q20.96-25.28 20.96-21.64L20.96-21.64Q20.96-19.36 19.94-17.66Q18.92-15.96 17.04-15L17.04-15ZM8.04-25.20L8.04-16.28L12.44-16.28Q14.68-16.28 15.82-17.56Q16.96-18.84 16.96-20.84L16.96-20.84Q16.96-23.04 15.60-24.12Q14.24-25.20 11.80-25.20L11.80-25.20L8.04-25.20ZM12.60-3.60Q15.12-3.60 16.76-4.74Q18.40-5.88 18.40-8.08L18.40-8.08Q18.40-10.36 16.62-11.44Q14.84-12.52 12.32-12.52L12.32-12.52L8.04-12.52L8.04-3.60L12.60-3.60Z M32.92-28.92L36.80-28.92L36.80 0L32.92 0L32.92-28.92Z M52.64-10.24Q52.64-8.32 53.56-6.78Q54.48-5.24 56.06-4.34Q57.64-3.44 59.56-3.44L59.56-3.44Q61.56-3.44 63.18-4.32Q64.80-5.20 65.72-6.76Q66.64-8.32 66.64-10.24L66.64-10.24L66.64-28.92L70.44-28.92L70.44-10.12Q70.44-7.04 69-4.66Q67.56-2.28 65.08-0.98Q62.60 0.32 59.56 0.32L59.56 0.32Q56.56 0.32 54.08-0.98Q51.60-2.28 50.18-4.66Q48.76-7.04 48.76-10.12L48.76-10.12L48.76-28.92L52.64-28.92L52.64-10.24Z M102.84 0L98.32 0L91.52-10.68Q91.20-10.64 90.56-10.64L90.56-10.64L86.28-10.64L86.28 0L82.40 0L82.40-28.92L90.12-28.92Q93.08-28.92 95.40-27.88Q97.72-26.84 99.04-24.82Q100.36-22.80 100.36-19.96L100.36-19.96Q100.36-17.28 99.18-15.04Q98.00-12.80 95.56-11.64L95.56-11.64L102.84 0ZM90.48-14.40Q93.60-14.40 94.98-16.04Q96.36-17.68 96.36-19.80L96.36-19.80Q96.36-21.08 95.78-22.32Q95.20-23.56 93.94-24.38Q92.68-25.20 90.76-25.20L90.76-25.20L86.28-25.20L86.28-14.40L90.48-14.40Z M110.36-14.44Q110.36-18.40 112.36-21.80Q114.36-25.20 117.74-27.22Q121.12-29.24 125.12-29.24L125.12-29.24Q129.08-29.24 132.48-27.22Q135.88-25.20 137.90-21.80Q139.92-18.40 139.92-14.44L139.92-14.44Q139.92-10.44 137.92-7.04Q135.92-3.64 132.50-1.66Q129.08 0.32 125.12 0.32L125.12 0.32Q121.12 0.32 117.72-1.64Q114.32-3.60 112.34-6.98Q110.36-10.36 110.36-14.44L110.36-14.44ZM114.36-14.40Q114.36-11.44 115.80-8.92Q117.24-6.40 119.74-4.92Q122.24-3.44 125.20-3.44L125.20-3.44Q128.16-3.44 130.62-4.90Q133.08-6.36 134.50-8.90Q135.92-11.44 135.92-14.44L135.92-14.44Q135.92-17.44 134.48-20Q133.04-22.56 130.56-24.04Q128.08-25.52 125.12-25.52L125.12-25.52Q122.16-25.52 119.68-24.02Q117.20-22.52 115.78-19.96Q114.36-17.40 114.36-14.40L114.36-14.40Z M187.52 0L183.00 0L176.20-10.68Q175.88-10.64 175.24-10.64L175.24-10.64L170.96-10.64L170.96 0L167.08 0L167.08-28.92L174.80-28.92Q177.76-28.92 180.08-27.88Q182.40-26.84 183.72-24.82Q185.04-22.80 185.04-19.96L185.04-19.96Q185.04-17.28 183.86-15.04Q182.68-12.80 180.24-11.64L180.24-11.64L187.52 0ZM175.16-14.40Q178.28-14.40 179.66-16.04Q181.04-17.68 181.04-19.80L181.04-19.80Q181.04-21.08 180.46-22.32Q179.88-23.56 178.62-24.38Q177.36-25.20 175.44-25.20L175.44-25.20L170.96-25.20L170.96-14.40L175.16-14.40Z M215.64 0L212.64-7.60L201.52-7.60L198.44 0L194.60 0L207.24-30.12L207.48-30.12L220.12 0L215.64 0ZM202.92-10.96L211.32-10.96L207.20-21.52L202.92-10.96Z M249.20-2.16Q247.80-1.24 245.66-0.46Q243.52 0.32 241 0.32L241 0.32Q236.56 0.32 233.18-1.64Q229.80-3.60 227.98-6.92Q226.16-10.24 226.16-14.24L226.16-14.24Q226.16-18.52 228-21.94Q229.84-25.36 233.10-27.30Q236.36-29.24 240.48-29.24L240.48-29.24Q242.92-29.24 245.04-28.60Q247.16-27.96 248.84-26.92L248.84-26.92L247.28-23.28Q243.96-25.52 240.60-25.52L240.60-25.52Q237.80-25.52 235.42-24.04Q233.04-22.56 231.62-20.02Q230.20-17.48 230.20-14.44L230.20-14.44Q230.20-11.32 231.50-8.80Q232.80-6.28 235.22-4.86Q237.64-3.44 240.80-3.44L240.80-3.44Q244.68-3.44 247.56-5.64L247.56-5.64L249.20-2.16Z M282.64-28.92L282.64 0L278.76 0L278.76-12.68L263.60-12.68L263.60 0L259.72 0L259.72-28.92L263.60-28.92L263.60-16.40L278.76-16.40L278.76-28.92L282.64-28.92Z M298.48-10.24Q298.48-8.32 299.40-6.78Q300.32-5.24 301.90-4.34Q303.48-3.44 305.40-3.44L305.40-3.44Q307.40-3.44 309.02-4.32Q310.64-5.20 311.56-6.76Q312.48-8.32 312.48-10.24L312.48-10.24L312.48-28.92L316.28-28.92L316.28-10.12Q316.28-7.04 314.84-4.66Q313.40-2.28 310.92-0.98Q308.44 0.32 305.40 0.32L305.40 0.32Q302.40 0.32 299.92-0.98Q297.44-2.28 296.02-4.66Q294.60-7.04 294.60-10.12L294.60-10.12L294.60-28.92L298.48-28.92L298.48-10.24Z M349.56-28.92L353.44-28.92L353.44 0.96L353.32 0.96L332.08-20.60L332.16 0L328.24 0L328.24-29.80L328.44-29.80L349.64-8L349.56-28.92Z M369.72-17.28L369.60-15.84L370.08-16.60L381.92-28.92L386.92-28.92L374.96-16.52L387.60 0L382.68 0L372.12-14.04L369.68-11.68L369.72 0L365.76 0L365.76-28.92L369.72-28.92L369.72-17.28Z M394-14.44Q394-18.40 396-21.80Q398-25.20 401.38-27.22Q404.76-29.24 408.76-29.24L408.76-29.24Q412.72-29.24 416.12-27.22Q419.52-25.20 421.54-21.80Q423.56-18.40 423.56-14.44L423.56-14.44Q423.56-10.44 421.56-7.04Q419.56-3.64 416.14-1.66Q412.72 0.32 408.76 0.32L408.76 0.32Q404.76 0.32 401.36-1.64Q397.96-3.60 395.98-6.98Q394-10.36 394-14.44L394-14.44ZM398-14.40Q398-11.44 399.44-8.92Q400.88-6.40 403.38-4.92Q405.88-3.44 408.84-3.44L408.84-3.44Q411.80-3.44 414.26-4.90Q416.72-6.36 418.14-8.90Q419.56-11.44 419.56-14.44L419.56-14.44Q419.56-17.44 418.12-20Q416.68-22.56 414.20-24.04Q411.72-25.52 408.76-25.52L408.76-25.52Q405.80-25.52 403.32-24.02Q400.84-22.52 399.42-19.96Q398-17.40 398-14.40L398-14.40Z M466.52-28.80L455.12 1.28L448.36-16L440.96 1.36L429.44-28.80L433.96-28.80L441.44-7.76L446.44-20.88L443.36-28.80L447.20-28.80L455.24-8.20L462.36-28.80L466.52-28.80Z M476.28-28.92L495.08-28.92L495.08-25.20L480.16-25.20L480.16-16.40L493.48-16.40L493.48-12.68L480.16-12.68L480.16-3.76L495.64-3.76L495.64 0L476.28 0L476.28-28.92Z"/></g>
</svg>
</g><g opacity="1" transform="rotate(0 559.3799 524.9507)">
<svg width="300" height="4.5912" x="559.3799" y="524.9507" version="1.1" preserveAspectRatio="none" viewBox="0 0 300 4.5912">
  <rect x="0" y="0" width="300" height="4.5912" class="asr1BtIxlfillColor asr1BtIxlstrokeColor-str" style="stroke-width:0;" rx="0px" ry="0px" />
</svg>
</g><g opacity="1" transform="rotate(0 932.6199 524.9507)">
<svg width="300" height="4.5912" x="932.6199" y="524.9507" version="1.1" preserveAspectRatio="none" viewBox="0 0 300 4.5912">
  <rect x="0" y="0" width="300" height="4.5912" class="aR9TavoXYfillColor aR9TavoXYstrokeColor-str" style="stroke-width:0;" rx="0px" ry="0px" />
</svg>
</g><g opacity="1" transform="rotate(0 559.3799 296.3282)">
<svg width="673.24" height="200" x="559.3799" y="296.3282" version="1.1" preserveAspectRatio="none" viewBox="1.8 -28.72 98.56 29.279999999999998">
  <g transform="matrix(1 0 0 1 0 0)" class="aD6z1nYkhcolor"><path id="id-D6z1nYkh4" d="M31.84-27.60L31.12-27.60Q30.12-27.60 29.40-26.90Q28.68-26.20 28.64-25.20L28.64-25.20L28.64-4.56Q28.64-2.24 28.92-0.16L28.92-0.16L29 0.56L28.64 0.56L6.84-22.72L6.84-2.80Q6.88-1.40 8.08-0.72L8.08-0.72Q8.64-0.40 9.28-0.40L9.28-0.40L10.04-0.40L10.04 0L1.80 0L1.80-0.40L2.56-0.40Q3.56-0.40 4.28-1.10Q5-1.80 5-2.84L5-2.84L5-23.60Q5-26.04 4.72-27.96L4.72-27.96L4.64-28.60L5.04-28.60L26.84-5.32L26.84-25.16Q26.80-26.20 26.08-26.90Q25.36-27.60 24.36-27.60L24.36-27.60L23.60-27.60L23.60-28L31.84-28L31.84-27.60Z M37.64-0.40L38.16-0.40Q39.20-0.40 39.94-1.14Q40.68-1.88 40.72-2.92L40.72-2.92L40.72-25.12Q40.68-26.16 39.94-26.88Q39.20-27.60 38.16-27.60L38.16-27.60L37.64-27.60L37.64-28L46.40-28L46.40-27.60L45.88-27.60Q44.84-27.60 44.10-26.88Q43.36-26.16 43.32-25.12L43.32-25.12L43.32-2.92Q43.32-1.88 44.08-1.14Q44.84-0.40 45.88-0.40L45.88-0.40L46.40-0.40L46.40 0L37.64 0L37.64-0.40Z M61.40-0.40L61.40-0.40L61.92-0.40L61.92 0L53.16 0L53.16-0.40L53.68-0.40Q54.72-0.40 55.46-1.14Q56.20-1.88 56.24-2.92L56.24-2.92L56.24-25.12Q56.20-26.16 55.46-26.88Q54.72-27.60 53.68-27.60L53.68-27.60L53.16-27.60L53.16-28L61.92-28L61.92-27.60L61.40-27.60Q60.36-27.60 59.62-26.88Q58.88-26.16 58.84-25.12L58.84-25.12L58.84-2.92Q58.84-1.88 59.60-1.14Q60.36-0.40 61.40-0.40ZM77.48-0.40L77.48 0L75.76 0Q71.68 0 69.76-2.28L69.76-2.28L60.12-13.92L69.56-25.76Q69.88-26.16 69.88-26.48Q69.88-26.80 69.76-27.04L69.76-27.04Q69.44-27.64 68.60-27.64L68.60-27.64L68.20-27.64L68.20-28L76.64-28L76.64-27.64L76.48-27.64Q73.84-27.64 72.16-25.76L72.16-25.76L62.76-14.88L73.68-2.04Q75.28-0.44 77.48-0.40L77.48-0.40Z M81.44-0.40L81.96-0.40Q83-0.40 83.74-1.14Q84.48-1.88 84.52-2.92L84.52-2.92L84.52-25.32Q84.40-26.28 83.68-26.94Q82.96-27.60 81.96-27.60L81.96-27.60L81.48-27.60L81.44-28L93.16-28Q94.40-28 95.86-28.24Q97.32-28.48 97.92-28.72L97.92-28.72L97.92-23.68L97.52-23.68L97.52-24.40Q97.52-25.36 96.86-26.04Q96.20-26.72 95.28-26.76L95.28-26.76L87.12-26.76L87.12-14.40L93.88-14.40Q94.68-14.44 95.24-15Q95.80-15.56 95.80-16.40L95.80-16.40L95.80-16.96L96.20-16.96L96.20-10.64L95.80-10.64L95.80-11.24Q95.80-12.04 95.26-12.60Q94.72-13.16 93.92-13.20L93.92-13.20L87.12-13.20L87.12-1.24L92.84-1.24Q95.80-1.24 97.36-2.56Q98.92-3.88 99.96-6.48L99.96-6.48L100.36-6.48L98.04 0L81.44 0L81.44-0.40Z"/></g>
</svg>
</g><g opacity="1" transform="rotate(0 97.4421 188.6684)">
<svg width="439.5482" height="408.4082" x="97.4421" y="188.6684" version="1.1" preserveAspectRatio="none" viewBox="0.16604232788085938 0 265.8339538574219 247">
  <g transform="matrix(-1 0 0 1 266.1660385131836 0)" class="aa32ZHzqBXdcolors-0"><defs></defs><g><path class="fil0" d="M39 215c-11,-50 -3,-78 25,-99 43,-34 126,-25 202,-81 -20,67 -95,64 -147,78 -37,11 -63,31 -62,73 0,10 -2,19 -18,29z"></path><path class="fil0" d="M83 221c0,-27 10,-45 30,-61 29,-22 75,-25 125,-42 6,17 -10,27 -21,30 -19,4 -31,5 -48,10 -33,9 -58,26 -62,59 -8,1 -16,2 -24,4z"></path><path class="fil0" d="M198 180c-25,23 -52,34 -86,37 1,-8 4,-15 8,-21 24,6 51,-10 78,-16z"></path><path class="fil0" d="M221 152c-2,14 -11,20 -28,24 -26,5 -46,19 -70,15 20,-27 66,-33 98,-39z"></path><path class="fil0" d="M42 247c-2,-10 -3,-18 -4,-27 14,-9 25,-16 24,-33 -1,-40 31,-61 60,-69 42,-11 111,-14 137,-54 5,18 -3,41 -20,49 -12,4 -25,7 -38,11 -29,7 -67,14 -91,32 -24,19 -32,41 -32,67 -11,3 -22,10 -36,24z"></path><path class="fil0" d="M34 236c-33,-39 -40,-65 -29,-94 17,-45 87,-66 118,-142 19,65 -42,89 -75,120 -22,20 -32,44 -19,74 0,8 2,16 4,24l-1 0 1 6c0,4 0,8 1,12z"></path><path class="fil0" d="M85 97c24,-18 47,-40 48,-69 12,14 20,38 5,53 -18,4 -36,9 -53,16z"></path></g></g>
</svg>
</g></svg>